<svg width="24" height="24" viewBox="0 0 24 24" fill="none" xmlns="http://www.w3.org/2000/svg">
<g clip-path="url(#clip0_2493_2531)">
<path d="M8.82657 0.0703783C8.43751 0.17819 8.11407 0.36569 7.80001 0.661003C7.58439 0.871941 7.48126 0.937566 7.37814 0.937566C6.97501 0.937566 6.35626 1.20007 6.01407 1.51413L5.79845 1.711H5.30157C4.81407 1.711 4.79064 1.71569 4.44376 1.88913C4.02189 2.09538 3.72657 2.39538 3.55782 2.78444C3.49689 2.92975 3.4172 3.04694 3.38439 3.04694C3.2672 3.04694 2.85939 3.286 2.69532 3.44538C2.60626 3.53913 2.47501 3.72194 2.4047 3.85788C2.29689 4.06882 2.27814 4.15788 2.27814 4.50007C2.27814 4.83757 2.29689 4.93132 2.40001 5.13288C2.47032 5.25944 2.61564 5.45632 2.72814 5.56413C3.02345 5.85007 3.30939 5.96257 3.86251 6.00007C4.55157 6.04694 4.50001 5.89694 4.50001 7.88444C4.50001 9.03757 4.51876 9.586 4.55626 9.72194C4.63126 9.97975 5.02032 10.3688 5.27814 10.4438C5.72814 10.5751 6.13126 10.4626 6.43595 10.1251C6.54845 10.0032 6.66564 9.81569 6.69376 9.71257C6.73126 9.586 6.75001 9.01882 6.75001 7.88444C6.75001 6.34225 6.7547 6.23913 6.83907 6.136L6.92814 6.0235L9.6422 6.00007C12.3469 5.97663 12.3516 5.97663 12.5859 5.86882C12.8953 5.72819 13.2328 5.386 13.3688 5.09069C13.5234 4.74382 13.5188 4.19069 13.3594 3.86725C13.2234 3.59538 12.9281 3.27663 12.7125 3.18288C12.6234 3.14538 12.5109 3.03757 12.4453 2.92507C12.3141 2.70007 12.0141 2.41882 11.7984 2.31569C11.6578 2.25007 11.6391 2.21725 11.5922 1.92194C11.3906 0.618815 10.0688 -0.262434 8.82657 0.0703783ZM10.0219 0.909441C10.3641 1.08288 10.5141 1.22819 10.6922 1.55632C10.8422 1.83757 10.8516 1.87507 10.8516 2.311V2.76569L11.0391 2.81725C11.4703 2.93444 11.7891 3.19694 11.9344 3.56257C11.9859 3.68913 12.0422 3.74538 12.1313 3.76413C12.2016 3.77819 12.3328 3.83913 12.4219 3.90007C12.8953 4.21882 12.8297 4.92194 12.3094 5.161C12.1313 5.24069 11.9531 5.25007 9.54376 5.25007C7.66407 5.25007 6.91876 5.26413 6.77814 5.30632C6.52032 5.38132 6.13126 5.77038 6.05626 6.02819C6.01876 6.16413 6.00001 6.71257 6.00001 7.87038V9.52038L5.88282 9.63288C5.73282 9.78757 5.5172 9.78757 5.3672 9.63288L5.25001 9.52038V7.87038C5.25001 6.73132 5.23126 6.16413 5.19376 6.03757C5.16564 5.93444 5.04845 5.74694 4.93595 5.62507C4.68751 5.3485 4.4297 5.25007 3.96564 5.25007C3.34689 5.24538 3.02345 4.98757 3.02345 4.49069C3.02345 4.04538 3.27657 3.79694 3.78282 3.75475L4.10157 3.72663L4.1297 3.48757C4.17189 3.16413 4.28907 2.93444 4.52814 2.7235C4.88439 2.41413 5.2547 2.36257 5.75626 2.55944C5.94376 2.63913 6.07032 2.66725 6.08439 2.63444C6.08907 2.611 6.17814 2.47507 6.27189 2.33444C6.59532 1.87507 7.11095 1.64538 7.6922 1.70632C7.94064 1.72975 7.95939 1.72507 8.00626 1.61257C8.15157 1.2985 8.65782 0.890691 9.02345 0.792253C9.27657 0.721941 9.76876 0.782878 10.0219 0.909441Z" fill="white"/>
<path d="M8.25 2.625V3H8.625H9V2.625V2.25H8.625H8.25V2.625Z" fill="white"/>
<path d="M5.25 4.125V4.5H5.625H6V4.125V3.75H5.625H5.25V4.125Z" fill="white"/>
<path d="M7.5 4.125V4.5H7.875H8.25V4.125V3.75H7.875H7.5V4.125Z" fill="white"/>
<path d="M9.75 4.125V4.5H10.125H10.5V4.125V3.75H10.125H9.75V4.125Z" fill="white"/>
<path d="M14.0672 6.07507C13.2094 6.30475 12.5437 7.04538 12.4078 7.92194C12.3609 8.21257 12.3422 8.25007 12.2062 8.311C11.9906 8.41413 11.7234 8.66257 11.5734 8.89694C11.5031 9.00944 11.3625 9.14538 11.2641 9.19694C10.9969 9.33757 10.7906 9.55319 10.65 9.84382C10.4719 10.2094 10.4672 10.7344 10.6453 11.1141C10.8 11.4376 11.0578 11.7094 11.3672 11.8594L11.6016 11.9766L14.3344 12.0001L17.0719 12.0235L17.1609 12.136C17.2453 12.2391 17.25 12.3423 17.25 13.8844C17.25 15.0376 17.2687 15.586 17.3062 15.7219C17.3812 15.9798 17.7703 16.3688 18.0281 16.4438C18.4781 16.5751 18.8812 16.4626 19.1859 16.1251C19.2984 16.0032 19.4156 15.8157 19.4437 15.7126C19.4812 15.586 19.5 15.0188 19.5 13.8844C19.5 11.8923 19.4484 12.0376 20.1422 11.9954C20.6906 11.9626 20.9719 11.8548 21.2719 11.5641C21.6094 11.2407 21.7219 10.9688 21.7266 10.5001C21.7266 10.1298 21.7125 10.0782 21.5578 9.79694C21.3703 9.45475 21.0562 9.18288 20.7422 9.08913C20.5781 9.04225 20.5406 9.00007 20.4422 8.77975C20.2734 8.39538 19.9734 8.09538 19.5562 7.88913C19.2094 7.71569 19.1859 7.711 18.6984 7.711H18.2016L17.9859 7.51413C17.6437 7.20007 17.025 6.93757 16.6219 6.93757C16.5187 6.93757 16.4156 6.87194 16.2 6.661C15.6047 6.09382 14.8125 5.8735 14.0672 6.07507ZM15.0562 6.81569C15.3797 6.90944 15.675 7.13913 15.8766 7.4485L16.0547 7.72507L16.3453 7.70163C17.0109 7.64069 17.5266 7.95475 17.9391 8.66257C17.9437 8.67194 18.0844 8.62507 18.2531 8.55944C18.7453 8.36257 19.1203 8.41413 19.4719 8.7235C19.7109 8.93444 19.8281 9.16413 19.8703 9.48757L19.8984 9.72663L20.2125 9.75475C20.4516 9.7735 20.5641 9.811 20.6859 9.90475C20.9016 10.0688 21.0187 10.3219 20.9859 10.5751C20.9391 11.0063 20.6016 11.2454 20.0437 11.2501C19.8656 11.2501 19.6359 11.2735 19.5281 11.3063C19.2703 11.3813 18.8812 11.7704 18.8062 12.0282C18.7687 12.1641 18.75 12.7126 18.75 13.8704V15.5204L18.6328 15.6329C18.4828 15.7876 18.2672 15.7876 18.1172 15.6329L18 15.5204V13.8704C18 12.7313 17.9812 12.1641 17.9437 12.0376C17.9156 11.9344 17.7984 11.7469 17.6859 11.6251C17.3391 11.2407 17.4187 11.2501 14.4656 11.2501C12.0469 11.2501 11.8687 11.2407 11.6906 11.161C11.1703 10.9219 11.1047 10.2188 11.5781 9.90007C11.6672 9.83913 11.7984 9.77819 11.8641 9.76413C11.9578 9.74538 12.0141 9.68444 12.0891 9.511C12.2344 9.20163 12.5391 8.93913 12.8812 8.84069L13.1484 8.76569V8.311C13.1484 7.90319 13.1672 7.8235 13.275 7.61257C13.4531 7.27038 13.5984 7.11569 13.8797 6.961C14.2828 6.74538 14.6625 6.69382 15.0562 6.81569Z" fill="white"/>
<path d="M14.25 7.875V8.25H14.625H15V7.875V7.5H14.625H14.25V7.875Z" fill="white"/>
<path d="M15.75 9.375V9.75H16.125H16.5V9.375V9H16.125H15.75V9.375Z" fill="white"/>
<path d="M14.25 10.125V10.5H14.625H15V10.125V9.75H14.625H14.25V10.125Z" fill="white"/>
<path d="M18 10.125V10.5H18.375H18.75V10.125V9.75H18.375H18V10.125Z" fill="white"/>
<path d="M1.6922 6.825C0.900012 7.03594 0.281262 7.66875 0.0703247 8.47031C-0.0328003 8.86875 -0.0328003 12.8859 0.0703247 13.2891C0.290637 14.1234 0.993762 14.7937 1.82345 14.9531C1.96407 14.9766 2.28282 15 2.53595 15H3.00001V15.4219C3.00001 15.7734 2.98595 15.8438 2.92501 15.8438C2.88751 15.8438 2.7422 15.9562 2.61095 16.0922C2.26876 16.4344 2.17501 16.7766 2.30626 17.2219C2.38126 17.4797 2.77032 17.8687 3.02814 17.9437C3.17345 17.9859 4.13907 18 6.86251 18H10.5V17.625V17.25H6.8672H3.2297L3.1172 17.1328C2.96251 16.9828 2.96251 16.7672 3.1172 16.6172L3.2297 16.5H6.4922H9.75001V16.125V15.75H6.75001H3.75001V11.25V6.75L2.85001 6.75469C2.2172 6.75469 1.87032 6.77812 1.6922 6.825ZM3.00001 7.875V8.25H2.73751C2.5922 8.25 2.38595 8.27344 2.27814 8.30625C2.02032 8.38125 1.63126 8.77031 1.55626 9.02812C1.47657 9.3 1.47657 12.45 1.55626 12.7219C1.63126 12.9797 2.02032 13.3687 2.27814 13.4437C2.38595 13.4766 2.5922 13.5 2.73751 13.5H3.00001V13.8797V14.2594L2.42814 14.2406C1.92189 14.2219 1.82345 14.2031 1.61251 14.0953C1.26095 13.9172 1.11095 13.7719 0.932825 13.4437L0.77345 13.1484V10.875V8.60156L0.900012 8.3625C1.08282 8.02031 1.22345 7.86562 1.5047 7.71094C1.83282 7.53281 1.95001 7.50937 2.52189 7.50469L3.00001 7.5V7.875ZM3.00001 10.875V12.75H2.7422C2.52657 12.75 2.46095 12.7312 2.3672 12.6328L2.25001 12.5203V10.875V9.22969L2.3672 9.11719C2.46095 9.01875 2.52657 9 2.7422 9H3.00001V10.875Z" fill="white"/>
<path d="M9.00004 6.811C8.77035 6.886 8.3766 7.28913 8.30629 7.52819C8.2266 7.80475 8.2266 13.9454 8.30629 14.2219C8.38129 14.4798 8.77035 14.8688 9.02816 14.9438C9.47816 15.0751 9.88129 14.9626 10.186 14.6251C10.4532 14.3251 10.5 14.1516 10.5 13.3876V12.7501H10.125H9.75004V13.3829C9.75004 13.9969 9.74535 14.0251 9.63285 14.1329C9.48285 14.2876 9.26722 14.2876 9.11722 14.1329L9.00004 14.0204V10.8751V7.72975L9.11722 7.61725C9.18754 7.54225 9.28597 7.50007 9.37504 7.50007C9.4641 7.50007 9.56254 7.54225 9.63285 7.61725C9.74066 7.72038 9.75004 7.76725 9.75004 8.17975V8.62507H10.125H10.5V8.17507C10.5 7.60788 10.4391 7.40632 10.186 7.12507C9.88129 6.78757 9.44535 6.67038 9.00004 6.811Z" fill="white"/>
<path d="M4.875 12.6376C4.875 13.5938 4.89375 14.0907 4.93125 14.2219C5.00625 14.4798 5.39531 14.8688 5.65313 14.9438C6.10313 15.0751 6.50625 14.9626 6.81094 14.6251C6.92344 14.5032 7.04063 14.3157 7.06875 14.2126C7.10625 14.0907 7.125 13.5751 7.125 12.6376V11.2501H6.75H6.375V12.6329V14.0204L6.25781 14.1329C6.10781 14.2876 5.89219 14.2876 5.74219 14.1329L5.625 14.0204V12.6329V11.2501H5.25H4.875V12.6376Z" fill="white"/>
<path d="M11.25 17.2969C11.25 21.3938 11.2406 21.8438 11.175 21.8438C11.1375 21.8438 10.9922 21.9563 10.8609 22.0875C10.5187 22.4344 10.425 22.7766 10.5562 23.2219C10.6312 23.4797 11.0203 23.8688 11.2781 23.9438C11.5594 24.0235 20.6906 24.0235 20.9719 23.9438C21.2297 23.8688 21.6187 23.4797 21.6937 23.2219C21.825 22.7766 21.7312 22.4344 21.3891 22.0875C21.2578 21.9563 21.1125 21.8438 21.075 21.8438C21.0141 21.8438 21 21.7735 21 21.4219V21H21.4641C22.0641 21 22.3547 20.9438 22.7625 20.7422C23.3531 20.4516 23.8266 19.8281 23.9531 19.1766C24.0141 18.8438 24.0141 14.9063 23.9531 14.5735C23.8359 13.9594 23.3719 13.3266 22.8328 13.036C22.3781 12.7969 22.1109 12.75 21.1312 12.75H20.25V17.25V21.75H17.25H14.25V22.125V22.5H17.5078H20.7703L20.8828 22.6172C21.0375 22.7672 21.0375 22.9828 20.8828 23.1328L20.7703 23.25H16.125H11.4797L11.3672 23.1328C11.2922 23.0625 11.25 22.9641 11.25 22.875C11.25 22.786 11.2922 22.6875 11.3672 22.6172C11.475 22.5047 11.5031 22.5 12.1172 22.5H12.75V22.125V21.75H12.375H12V17.25V12.75H11.625H11.25V17.2969ZM22.4437 13.6875C22.7719 13.861 22.9125 14.0063 23.1 14.3625L23.2266 14.6016V16.875V19.1485L23.0672 19.4438C22.8891 19.7719 22.7391 19.9172 22.3875 20.0953C22.1766 20.2031 22.0781 20.2219 21.5766 20.2406L21 20.2594V19.8797V19.5H21.2625C21.4078 19.5 21.6141 19.4766 21.7219 19.4438C21.9797 19.3688 22.3687 18.9797 22.4437 18.7219C22.4812 18.586 22.5 18.0375 22.5 16.875C22.5 15.7125 22.4812 15.1641 22.4437 15.0281C22.3687 14.7703 21.9797 14.3813 21.7219 14.3063C21.6141 14.2735 21.4078 14.25 21.2625 14.25H21V13.8703V13.4907L21.5766 13.5094C22.1203 13.5281 22.1625 13.5375 22.4437 13.6875ZM21.6328 15.1172L21.75 15.2297V16.875V18.5203L21.6328 18.6328C21.5391 18.7313 21.4734 18.75 21.2578 18.75H21V16.875V15H21.2578C21.4734 15 21.5391 15.0188 21.6328 15.1172Z" fill="white"/>
<path d="M13.875 12.811C13.6453 12.886 13.2516 13.2891 13.1813 13.5282C13.1016 13.8048 13.1016 19.9454 13.1813 20.2219C13.2563 20.4798 13.6453 20.8688 13.9032 20.9438C14.3532 21.0751 14.7563 20.9626 15.061 20.6251C15.1735 20.5032 15.2907 20.3157 15.3188 20.2126C15.3985 19.9501 15.3985 13.8001 15.3188 13.5376C15.2391 13.261 14.9063 12.9141 14.6391 12.8251C14.3907 12.7407 14.1141 12.736 13.875 12.811ZM14.5078 13.6173L14.625 13.7298V16.8751V20.0204L14.5078 20.1329C14.3578 20.2876 14.1422 20.2876 13.9922 20.1329L13.875 20.0204V16.8751V13.7298L13.9922 13.6173C14.0625 13.5423 14.161 13.5001 14.25 13.5001C14.3391 13.5001 14.4375 13.5423 14.5078 13.6173Z" fill="white"/>
<path d="M16.875 18.6376C16.875 19.5938 16.8938 20.0907 16.9313 20.2219C17.0063 20.4798 17.3953 20.8688 17.6531 20.9438C18.1031 21.0751 18.5063 20.9626 18.8109 20.6251C18.9234 20.5032 19.0406 20.3157 19.0688 20.2126C19.1063 20.0907 19.125 19.5751 19.125 18.6376V17.2501H18.75H18.375V18.6329V20.0204L18.2578 20.1329C18.1078 20.2876 17.8922 20.2876 17.7422 20.1329L17.625 20.0204V18.6329V17.2501H17.25H16.875V18.6376Z" fill="white"/>
</g>
<defs>
<clipPath id="clip0_2493_2531">
<rect width="24" height="24" fill="white"/>
</clipPath>
</defs>
</svg>
