<svg width="24" height="24" viewBox="0 0 24 24" fill="none" xmlns="http://www.w3.org/2000/svg">
<g clip-path="url(#clip0_2484_2490)">
<path d="M10.9219 0.0469227C8.60626 0.271923 6.46876 1.12505 4.59376 2.5688C3.6797 3.27192 2.49376 4.5938 1.80939 5.67192C1.51407 6.13599 0.937512 7.31724 0.731262 7.87974C0.501575 8.50786 0.253137 9.47349 0.131262 10.2188C-0.0140503 11.1329 -0.0140503 12.8672 0.131262 13.7813C0.3422 15.075 0.675012 16.1157 1.2422 17.2735C1.86095 18.5344 2.50314 19.4297 3.53439 20.4657C4.57032 21.4969 5.46564 22.1391 6.72657 22.7579C7.88439 23.325 8.92501 23.6579 10.2188 23.8688C11.1328 24.0141 12.8672 24.0141 13.7813 23.8688C15.075 23.6579 16.1156 23.325 17.2735 22.7579C18.5344 22.1391 19.4297 21.4969 20.4656 20.4657C21.4969 19.4297 22.1391 18.5344 22.7578 17.2735C23.1703 16.4344 23.3766 15.886 23.6016 15.0422C23.8969 13.9172 23.9672 13.3032 23.9672 12C23.9672 10.6969 23.8969 10.0829 23.6016 8.95786C23.3766 8.11411 23.1703 7.56567 22.7578 6.72661C22.1391 5.46567 21.4969 4.57036 20.4656 3.53442C19.4297 2.50317 18.5344 1.86098 17.2735 1.24224C16.1203 0.675049 15.0516 0.337547 13.8047 0.140673C13.1156 0.0328598 11.5781 -0.0187016 10.9219 0.0469227ZM13.3031 2.27349C16.6172 2.73755 19.4391 4.80474 20.8688 7.8188C21.511 9.1688 21.7969 10.4625 21.7969 12C21.7969 12.8954 21.7219 13.5422 21.5203 14.3719C20.6672 17.8454 17.8453 20.6672 14.3719 21.5204C13.5422 21.7219 12.8953 21.7969 12 21.7969C11.1047 21.7969 10.4578 21.7219 9.62814 21.5204C6.1547 20.6672 3.33282 17.8454 2.4797 14.3719C2.27814 13.5422 2.20314 12.8954 2.20314 12C2.20314 11.1047 2.27814 10.4579 2.4797 9.62817C3.33282 6.15005 6.1547 3.32817 9.63751 2.47974C9.95158 2.40474 10.4063 2.31099 10.6453 2.27817C11.2594 2.18911 12.6703 2.18442 13.3031 2.27349Z" fill="black"/>
<path d="M11.4563 5.20791C10.9875 5.38603 10.6078 5.90166 10.5609 6.41729C10.4859 7.25635 11.1516 7.98291 12 7.98291C13.1297 7.98291 13.8234 6.74541 13.2281 5.79385C12.8578 5.19853 12.1172 4.95479 11.4563 5.20791Z" fill="black"/>
<path d="M11.6813 10.2422C11.3859 10.3313 11.1609 10.5281 11.0344 10.8L10.9219 11.0391V14.5547C10.9219 17.8781 10.9266 18.0797 11.0109 18.2578C11.325 18.9328 12.2063 19.1063 12.7453 18.5953C12.8297 18.511 12.9422 18.361 12.9891 18.2578C13.0734 18.0797 13.0781 17.8781 13.0781 14.5547V11.0391L12.9656 10.8C12.8344 10.5235 12.6141 10.3313 12.3 10.2375C12.0328 10.1578 11.9438 10.1578 11.6813 10.2422Z" fill="black"/>
</g>
<defs>
<clipPath id="clip0_2484_2490">
<rect width="24" height="24" fill="white"/>
</clipPath>
</defs>
</svg>
