<svg width="24" height="24" viewBox="0 0 24 24" fill="none" xmlns="http://www.w3.org/2000/svg">
<g clip-path="url(#clip0_2451_3304)">
<path d="M3.31942 19.047C3.27552 19.0525 3.23679 19.0514 3.20722 19.0485L3.28785 19.1028L3.50796 19.2509C3.51422 19.2195 3.52102 19.1892 3.52839 19.1601L3.52836 19.1601L3.52968 19.1551C3.55139 19.073 3.57603 18.992 3.60353 18.9124C3.50004 19.0114 3.37732 19.0397 3.31942 19.047ZM3.95896 21.8641C3.80077 21.6138 3.66943 21.3438 3.58191 21.0701C3.5781 21.1189 3.56829 21.1737 3.54806 21.232C3.50241 21.3634 3.42075 21.4626 3.35752 21.5314C3.32023 21.572 3.27393 21.6179 3.21764 21.6707C3.37477 21.5838 3.5252 21.6041 3.59983 21.6233C3.67683 21.6431 3.73435 21.6761 3.76523 21.6956C3.8291 21.736 3.88153 21.7849 3.91662 21.82C3.93053 21.8339 3.94465 21.8487 3.95896 21.8641ZM7.1813 23.967L7.1813 23.9671L7.1813 23.967ZM6.2875 23.4542C6.20858 23.4414 6.13278 23.4263 6.05922 23.409C6.13458 23.43 6.19815 23.4446 6.2875 23.4542ZM21.2599 3.5335C21.4145 3.58597 21.5649 3.65064 21.7101 3.72623C21.6955 3.70432 21.6794 3.6769 21.6652 3.6447C21.6491 3.60852 21.595 3.4774 21.6344 3.31617C21.6191 3.33323 21.6051 3.34863 21.5926 3.36222C21.5108 3.45404 21.4176 3.49179 21.377 3.50608C21.3299 3.52267 21.2881 3.52995 21.2599 3.5335ZM20.9636 3.5167L20.8633 3.93928C21.8818 4.17865 22.7596 5.06576 23.0271 6.11714L20.9636 3.5167ZM18.8875 3.57127C19.0912 3.49495 19.3023 3.43798 19.5185 3.40106L19.2746 3.38841L19.135 3.18226L18.9643 2.93002C18.9668 2.93463 18.9692 2.9392 18.9716 2.94371C18.9781 2.95598 18.9881 2.97564 18.9978 2.99856C19.0025 3.00983 19.0103 3.02917 19.0177 3.05337L19.0177 3.05346C19.0224 3.06907 19.04 3.12678 19.04 3.20237C19.04 3.34511 18.9812 3.44653 18.9538 3.48836C18.931 3.52317 18.9071 3.5509 18.8875 3.57127Z" fill="black" stroke="black"/>
<path d="M20.8164 6.5114C20.6145 6.60058 20.5676 6.74139 20.5348 7.34688C20.4315 9.30413 20.164 10.7169 19.657 11.9983C18.9718 13.7443 18.0049 15.1853 16.2964 17.0205C15.9209 17.4195 15.8646 17.504 15.8646 17.6495C15.8646 17.9968 16.165 18.2033 16.4794 18.0719C16.6625 17.9968 17.6669 16.9219 18.3147 16.1099C19.2393 14.9459 20.1546 13.3735 20.5723 12.2283C21.0933 10.7967 21.3561 9.37454 21.4312 7.61442C21.45 7.21076 21.45 6.82588 21.4312 6.75548C21.3984 6.62875 21.159 6.44569 21.0276 6.44569C20.99 6.45039 20.8915 6.47855 20.8164 6.5114Z" fill="black"/>
</g>
<defs>
<clipPath id="clip0_2451_3304">
<rect width="24" height="24" fill="white"/>
</clipPath>
</defs>
</svg>
