<svg width="60" height="49" viewBox="0 0 60 49" fill="none" xmlns="http://www.w3.org/2000/svg">
<g clip-path="url(#clip0_2451_3165)">
<rect width="60" height="49" fill="white"/>
<path d="M0 24.5V49H30H60V24.5V0H30H0V24.5ZM33.0978 12.1678V15.2919H32.6087H32.1196V12.6611V10.0302H23.6413H15.163V24.1711V38.3121H23.6413H32.1196V35.6812V33.0503H32.6087H33.0978V36.1745V39.2987H23.6413H14.1848V24.1711V9.04362H23.6413H33.0978V12.1678ZM26.6576 16.3443C28.2065 16.7554 29.1033 17.446 29.5761 18.6134C29.8859 19.3369 29.9022 19.9782 29.6576 20.9812C29.3641 22.0993 28.4348 22.5433 27.587 21.9349C27.2772 21.7211 27.2283 21.5403 27.2283 20.4879C27.2283 19.4685 27.1793 19.2547 26.8696 18.9587C25.712 17.9064 22.7609 18.1037 21.8152 19.304C21.6359 19.5178 21.5217 19.9453 21.5217 20.3893C21.5217 21.5732 22.0109 22.0171 24.75 23.2668C27.913 24.6973 28.6141 25.2564 29.0054 26.7198C29.25 27.6735 28.9891 29.1862 28.4022 30.0084C27.4728 31.3567 26.0054 32.0309 23.6902 32.1789C20.4783 32.3926 18.1304 31.3403 17.6087 29.4658C17.2337 28.0517 17.5435 26.7856 18.3913 26.3745C18.913 26.1279 19.0109 26.1279 19.5 26.3745L20.0543 26.6376V27.8379C20.0543 28.8903 20.1033 29.0876 20.4293 29.4C21.1957 30.1235 24.0815 30.3044 25.2391 29.696C26.5924 28.9889 26.8043 27.5419 25.6957 26.6047C25.5 26.4567 24.6522 26.0128 23.8043 25.6346C20.4783 24.1711 19.288 23.2668 18.9293 21.9349C18.4076 20.0604 19.2391 18.0215 20.9185 17.0185C22.3696 16.1799 24.913 15.8675 26.6576 16.3443ZM46.2554 21.5074C47.5435 22.1815 48.1467 23.6614 47.4457 24.4178C47.2337 24.648 46.875 24.8289 46.6304 24.8289C46.125 24.8289 45.4891 24.4178 45.4891 24.0725C45.4891 23.6285 44.7228 23.0201 44.1685 23.0201C42.962 23.0201 41.9185 24.0725 41.6413 25.5523L41.5272 26.1936L42.0489 25.799C42.3913 25.5359 42.8478 25.4044 43.5163 25.355C45.6848 25.1906 47.1359 26.4074 47.1359 28.3641C47.1359 29.9426 46.288 31.2416 44.837 31.8664C43.9402 32.2611 41.9674 32.2117 41.1359 31.7678C40.2391 31.2909 39.5217 30.3866 39.2772 29.4C39.0815 28.6765 39.0326 28.6107 38.5761 28.6107C37.9076 28.6107 37.7609 28.7258 37.3859 29.6138C36.6359 31.3238 35.0707 32.3597 33.538 32.146C32.4783 32.0144 31.9565 31.7349 31.2554 30.9128C30.5217 30.0413 30.2609 29.0547 30.375 27.6899C30.6196 25.1084 32.2826 23.2997 34.4022 23.2997C36.0489 23.2997 37.4348 24.4507 37.7283 26.0621C37.8424 26.6869 37.8587 26.6869 38.6087 26.5389C39.0326 26.4567 39.1141 26.3416 39.1957 25.7661C39.4239 24.3191 40.4022 22.6584 41.413 21.9513C42.7826 20.9977 44.8696 20.8003 46.2554 21.5074Z" fill="black"/>
<path d="M33.7989 25.5195C33.2446 25.7826 32.7717 26.9172 32.7717 27.9695C32.7717 30.0249 34.2717 30.7813 35.2174 29.2192C35.6087 28.5943 35.625 28.1833 35.2989 28.0024C34.9076 27.7722 34.4022 26.6212 34.4022 25.947C34.4022 25.2729 34.3533 25.24 33.7989 25.5195Z" fill="black"/>
<path d="M42.3424 27.6242C41.4457 28.3312 41.6902 29.9427 42.7174 30.1729C43.7446 30.4031 44.6739 29.5974 44.6739 28.4792C44.6739 27.4269 43.2391 26.9172 42.3424 27.6242Z" fill="black"/>
</g>
<defs>
<clipPath id="clip0_2451_3165">
<rect width="60" height="49" fill="white"/>
</clipPath>
</defs>
</svg>
