<svg width="60" height="49" viewBox="0 0 60 49" fill="none" xmlns="http://www.w3.org/2000/svg">
<g clip-path="url(#clip0_2451_3166)">
<rect width="60" height="48.8136" fill="black"/>
<path d="M0 24.4068V48.8136H30H60V24.4068V3.43323e-05H30H0V24.4068ZM33.0978 12.1215V15.2338H32.6087H32.1196V12.6129V9.99207H23.6413H15.163V24.0792V38.1663H23.6413H32.1196V35.5455V32.9246H32.6087H33.0978V36.0369V39.1492H23.6413H14.1848V24.0792V9.00925H23.6413H33.0978V12.1215ZM26.6576 16.2821C28.2065 16.6917 29.1033 17.3796 29.5761 18.5426C29.8859 19.2634 29.9022 19.9022 29.6576 20.9014C29.3641 22.0153 28.4348 22.4576 27.587 21.8515C27.2772 21.6385 27.2283 21.4583 27.2283 20.41C27.2283 19.3944 27.1793 19.1815 26.8696 18.8866C25.712 17.8383 22.7609 18.0348 21.8152 19.2306C21.6359 19.4436 21.5217 19.8694 21.5217 20.3117C21.5217 21.4911 22.0109 21.9334 24.75 23.1783C27.913 24.6034 28.6141 25.1603 29.0054 26.6182C29.25 27.5682 28.9891 29.0752 28.4022 29.8942C27.4728 31.2374 26.0054 31.909 23.6902 32.0565C20.4783 32.2694 18.1304 31.2211 17.6087 29.3537C17.2337 27.945 17.5435 26.6837 18.3913 26.2742C18.913 26.0285 19.0109 26.0285 19.5 26.2742L20.0543 26.5363V27.732C20.0543 28.7804 20.1033 28.9769 20.4293 29.2882C21.1957 30.0089 24.0815 30.1891 25.2391 29.583C26.5924 28.8787 26.8043 27.4372 25.6957 26.5035C25.5 26.3561 24.6522 25.9138 23.8043 25.5371C20.4783 24.0792 19.288 23.1783 18.9293 21.8515C18.4076 19.9841 19.2391 17.9529 20.9185 16.9537C22.3696 16.1183 24.913 15.8071 26.6576 16.2821ZM46.2554 21.4256C47.5435 22.0972 48.1467 23.5714 47.4457 24.3249C47.2337 24.5542 46.875 24.7344 46.6304 24.7344C46.125 24.7344 45.4891 24.3249 45.4891 23.9809C45.4891 23.5387 44.7228 22.9326 44.1685 22.9326C42.962 22.9326 41.9185 23.9809 41.6413 25.4552L41.5272 26.094L42.0489 25.7009C42.3913 25.4388 42.8478 25.3077 43.5163 25.2586C45.6848 25.0948 47.1359 26.3069 47.1359 28.2562C47.1359 29.8287 46.288 31.1228 44.837 31.7452C43.9402 32.1384 41.9674 32.0892 41.1359 31.6469C40.2391 31.1719 39.5217 30.271 39.2772 29.2882C39.0815 28.5674 39.0326 28.5019 38.5761 28.5019C37.9076 28.5019 37.7609 28.6166 37.3859 29.5011C36.6359 31.2047 35.0707 32.2366 33.538 32.0237C32.4783 31.8927 31.9565 31.6142 31.2554 30.7952C30.5217 29.927 30.2609 28.9442 30.375 27.5846C30.6196 25.0129 32.2826 23.211 34.4022 23.211C36.0489 23.211 37.4348 24.3577 37.7283 25.963C37.8424 26.5854 37.8587 26.5854 38.6087 26.438C39.0326 26.3561 39.1141 26.2414 39.1957 25.6681C39.4239 24.2266 40.4022 22.5722 41.413 21.8679C42.7826 20.9178 44.8696 20.7212 46.2554 21.4256Z" fill="white"/>
<path d="M33.7989 25.4224C33.2446 25.6845 32.7717 26.8147 32.7717 27.8631C32.7717 29.9106 34.2717 30.6641 35.2174 29.108C35.6087 28.4855 35.625 28.076 35.2989 27.8958C34.9076 27.6665 34.4022 26.5199 34.4022 25.8483C34.4022 25.1767 34.3533 25.1439 33.7989 25.4224Z" fill="white"/>
<path d="M42.3424 27.5191C41.4457 28.2234 41.6902 29.8287 42.7174 30.058C43.7446 30.2873 44.6739 29.4847 44.6739 28.3708C44.6739 27.3225 43.2391 26.8147 42.3424 27.5191Z" fill="white"/>
</g>
<defs>
<clipPath id="clip0_2451_3166">
<rect width="60" height="48.8136" fill="white"/>
</clipPath>
</defs>
</svg>
