<svg width="24" height="24" viewBox="0 0 24 24" fill="none" xmlns="http://www.w3.org/2000/svg">
<path d="M17.9733 0.0639229C17.7433 0.148409 17.4429 0.439415 17.3631 0.655323C17.288 0.871233 17.288 1.16224 17.3725 1.39223C17.41 1.50018 17.6823 1.94608 17.9827 2.38259C18.2784 2.8191 18.5224 3.1946 18.5224 3.22276C18.5224 3.25092 18.4239 3.31194 18.3065 3.36357C17.7996 3.58886 17.1097 4.20843 16.7623 4.7482C16.3587 5.37715 16.1991 5.96386 16.1287 7.06217C15.9081 10.5167 14.2981 13.2672 11.5758 14.8302C10.1865 15.6281 8.86758 16.0036 6.98542 16.1397C6.60523 16.1632 6.15934 16.2148 5.99037 16.2524C4.89674 16.5011 3.89699 17.2756 3.39946 18.2706C3.31967 18.4255 3.24927 18.5616 3.23988 18.571C3.23519 18.5804 2.88316 18.3504 2.46073 18.0594C1.57363 17.4446 1.31078 17.3084 1.01508 17.3084C0.522248 17.3131 0.0763505 17.6933 0.0059456 18.1815C-0.040991 18.4819 0.203079 22.7108 0.278178 22.9314C0.423682 23.3445 0.747544 23.5979 1.17936 23.6355C1.60179 23.6684 1.78015 23.5651 2.63909 22.8141C3.05213 22.4574 3.40885 22.1476 3.44171 22.1288C3.47456 22.1101 3.58721 22.2227 3.73741 22.4245C4.26779 23.1427 4.99061 23.6449 5.83078 23.889C6.16872 23.9875 6.28607 23.9969 7.16378 23.9875C9.52939 23.9687 11.6228 23.5557 13.4298 22.7484C15.6265 21.7627 17.8935 19.9885 19.9587 17.637C22.2539 15.0179 23.4649 12.4317 23.8451 9.34329C23.9483 8.5219 24.0281 6.97769 23.9906 6.5271C23.9014 5.34899 23.2396 4.20843 22.3008 3.61703C22.1835 3.54662 22.0943 3.47152 22.1037 3.45275C22.1084 3.43397 22.4088 3.07725 22.7702 2.66421C23.1316 2.24648 23.4743 1.80997 23.5306 1.68793C23.7934 1.13877 23.5165 0.486353 22.9251 0.284525C22.8031 0.242281 22.0051 0.181265 20.5736 0.106165C18.0953 -0.0299511 18.2314 -0.0252571 17.9733 0.0639229ZM20.6346 1.02143C22.5965 1.12 22.7467 1.13408 22.7467 1.20448C22.7467 1.23734 21.4888 2.73931 21.2025 3.04909C21.1884 3.06787 21.0899 3.05848 20.9866 3.03501C20.8834 3.00685 20.5126 2.97399 20.1652 2.95522L19.5316 2.92236L18.912 2.0071C18.5694 1.50488 18.2925 1.05429 18.2878 1.00735C18.2878 0.904089 18.2737 0.904089 20.6346 1.02143ZM20.8458 3.95966C21.8643 4.19904 22.742 5.08614 23.0096 6.13752C23.1598 6.72423 23.0331 8.85985 22.7655 10.2257C22.1976 13.1499 20.7566 15.6093 18.0484 18.28C14.8426 21.4342 12.064 22.739 8.00864 22.9925C6.57238 23.0816 6.11709 23.0206 5.41304 22.6498C4.7794 22.3119 4.16922 21.5046 3.99556 20.7771C3.90638 20.3875 3.90638 19.6553 3.99556 19.3032C4.21147 18.4865 4.77001 17.8013 5.54447 17.407C5.9669 17.1958 6.30953 17.1254 7.14031 17.0738C9.48714 16.9329 11.5242 16.1773 13.2562 14.8067C15.434 13.0841 16.8374 10.3571 17.0674 7.39542C17.1707 6.02488 17.2786 5.64469 17.7198 5.05798C18.4473 4.09109 19.6395 3.67335 20.8458 3.95966ZM2.02891 18.8902L2.99111 19.5379L2.96295 19.7726C2.93948 19.9791 2.99111 20.5987 3.06152 20.993C3.08499 21.1291 3.05213 21.1713 2.30115 21.8144C1.35303 22.6311 1.24038 22.7155 1.19344 22.6686C1.1512 22.6264 0.911822 18.3457 0.949372 18.2894C0.963453 18.2659 0.996308 18.2472 1.01978 18.2472C1.04794 18.2472 1.49853 18.5382 2.02891 18.8902Z" fill="white"/>
<path d="M20.7989 6.53179C20.597 6.62097 20.5501 6.76178 20.5172 7.36726C20.414 9.32452 20.1464 10.7373 19.6395 12.0187C18.9543 13.7647 17.9874 15.2057 16.2789 17.0409C15.9034 17.4399 15.847 17.5243 15.847 17.6699C15.847 18.0172 16.1474 18.2237 16.4619 18.0923C16.645 18.0172 17.6494 16.9423 18.2971 16.1303C19.2218 14.9663 20.1371 13.3939 20.5548 12.2487C21.0758 10.8171 21.3386 9.39493 21.4137 7.6348C21.4325 7.23115 21.4325 6.84627 21.4137 6.77586C21.3809 6.64913 21.1415 6.46608 21.0101 6.46608C20.9725 6.47077 20.874 6.49893 20.7989 6.53179Z" fill="white"/>
</svg>
