<svg width="32" height="32" viewBox="0 0 24 24" fill="none" xmlns="http://www.w3.org/2000/svg">
<g clip-path="url(#clip0_2455_2069)">
<path d="M6.82033 0.0656261C6.25314 0.201565 6.27189 0.187502 3.31408 3.13594C1.77189 4.67344 0.445326 6.01875 0.365639 6.13125C0.0422012 6.59531 -0.0749863 7.34063 0.0656387 8.01563C0.150014 8.41875 0.440639 9.0375 0.665639 9.29063C0.750014 9.38438 2.88751 11.0906 5.41408 13.0828C9.17814 16.0453 10.0031 16.7203 9.99376 16.8C9.98908 16.8516 10.0078 17.0016 10.036 17.1328C10.0875 17.3531 10.1578 17.4375 11.1047 18.3891C12.2016 19.5 12.5156 19.7438 13.1344 19.9828C13.5094 20.1234 13.5516 20.1328 14.2266 20.1328C14.8781 20.1328 14.9578 20.1234 15.3047 20.0016C15.9844 19.7625 16.1344 19.6406 17.8266 17.9578C19.5469 16.2469 19.7485 16.0078 19.9875 15.3328C20.1235 14.9484 20.1328 14.8969 20.1328 14.2266C20.1328 13.5516 20.1235 13.5094 19.9828 13.1344C19.7438 12.5156 19.5 12.2016 18.3891 11.1047C17.4375 10.1578 17.3531 10.0875 17.1328 10.0359C17.0063 10.0078 16.8516 9.98906 16.8 9.99375C16.7156 10.0031 16.3547 9.57188 14.836 7.64063C13.8141 6.3375 12.9047 5.20313 12.8156 5.11875C12.6985 5.01094 12.6141 4.96875 12.4969 4.96875C12.2063 4.96875 11.9625 5.26875 12.0375 5.54063C12.0516 5.59219 12.9328 6.74531 14.0016 8.1L15.9422 10.5656L15.6 10.9078C15.4125 11.0953 15.2485 11.2313 15.2297 11.2125C15.2156 11.1938 14.4375 10.2516 13.5047 9.11719L11.8031 7.05469L11.4469 6.88125C11.0485 6.68438 10.5281 6.51563 9.96095 6.38906C9.38908 6.2625 8.06251 6.27656 7.42033 6.4125C6.18751 6.67969 5.1797 7.19531 4.48126 7.91719C4.30783 8.1 4.12033 8.35313 4.0547 8.49375C3.91408 8.79844 3.89533 9.1875 4.02189 9.40781C4.07345 9.50156 5.41408 10.6078 7.6547 12.3938C9.6047 13.9594 11.2031 15.2531 11.2031 15.2719C11.2031 15.2906 11.0578 15.45 10.8844 15.6234L10.5656 15.9422L9.30001 14.9484C8.60626 14.4 7.70158 13.6875 7.28908 13.3594C6.87658 13.0359 6.0422 12.3797 5.43751 11.9016C4.83283 11.4234 3.68908 10.5234 2.89689 9.9C2.10939 9.27656 1.39689 8.69063 1.32189 8.59688C1.08283 8.30625 0.960951 7.91719 0.960951 7.42969C0.960951 7.0875 0.979701 6.96563 1.06408 6.79688C1.13908 6.64688 1.95001 5.80313 3.92345 3.83438C6.67501 1.09219 6.6797 1.0875 6.96095 1.00313C7.49064 0.853127 8.22189 1.00313 8.62033 1.34063C8.72345 1.42969 8.97658 1.72031 9.18283 1.9875C9.67033 2.60625 9.87189 2.70469 10.1625 2.46094C10.336 2.31563 10.3922 2.10938 10.3031 1.93594C10.1766 1.67813 9.3797 0.721876 9.17345 0.571877C8.50314 0.0937519 7.54689 -0.112499 6.82033 0.0656261ZM9.60001 7.28906C9.98908 7.35469 10.5891 7.52344 11.0063 7.69688C11.1235 7.74375 11.5828 8.26406 12.8578 9.81094C13.7906 10.9406 14.5594 11.8781 14.5688 11.8969C14.5735 11.9156 13.9781 12.5297 13.2469 13.2609C12.2297 14.2781 11.8969 14.5828 11.85 14.5453C11.6531 14.3906 4.94064 9.02813 4.90783 9C4.8422 8.94375 4.9922 8.70938 5.23595 8.47969C6.25783 7.52344 8.04376 7.03594 9.60001 7.28906ZM17.236 11.2594C17.4 11.4188 17.5313 11.5734 17.5313 11.6016C17.5313 11.6625 11.6625 17.5312 11.6016 17.5312C11.5406 17.5312 10.9688 16.9594 10.9688 16.8984C10.9688 16.8375 16.8375 10.9688 16.8985 10.9688C16.9219 10.9688 17.0766 11.1 17.236 11.2594ZM18.5297 12.5578C18.8391 12.8953 19.0406 13.2375 19.1485 13.6125C19.3031 14.1516 19.186 15.0844 18.9141 15.4453C18.8438 15.5297 18.8344 15.5297 18.6328 15.3281C18.4406 15.1406 18.3938 15.1172 18.2063 15.1172C17.9297 15.1172 17.7656 15.2859 17.7656 15.5672C17.7656 15.7266 17.7985 15.7922 18 16.0031L18.2297 16.2469L17.9063 16.5703L17.5781 16.8938L17.3813 16.6969C17.1141 16.4391 16.9406 16.3781 16.7156 16.4719C16.5188 16.5516 16.3875 16.8 16.4344 16.9922C16.4485 17.0578 16.561 17.2172 16.6781 17.3484L16.8891 17.5828L16.5703 17.9063L16.2469 18.2297L16.0031 18C15.7922 17.7984 15.7266 17.7656 15.5672 17.7656C15.286 17.7656 15.1172 17.9297 15.1172 18.2063C15.1172 18.3938 15.1406 18.4406 15.3281 18.6328C15.525 18.8344 15.5297 18.8438 15.4453 18.9094C15.075 19.1859 14.1516 19.3031 13.6125 19.1484C13.2328 19.0406 12.9141 18.8484 12.5578 18.5203L12.2578 18.2391L15.2344 15.2625C16.8703 13.6219 18.225 12.2813 18.2391 12.2813C18.2578 12.2813 18.3891 12.4078 18.5297 12.5578Z" fill="white"/>
<path d="M11.0156 3.33281C10.5562 3.51562 10.6969 4.21875 11.1937 4.21875C11.6766 4.21875 11.8172 3.53906 11.3719 3.35156C11.1844 3.27187 11.175 3.27187 11.0156 3.33281Z" fill="white"/>
<path d="M21.3469 18.4688C21.0891 18.5719 21.0094 18.975 21.2016 19.1953C21.4266 19.4578 21.825 19.3828 21.9656 19.05C22.0219 18.9141 22.0219 18.8672 21.9656 18.7313C21.8531 18.4641 21.6141 18.361 21.3469 18.4688Z" fill="white"/>
<path d="M18.9094 18.9094C18.7359 19.0828 18.7078 19.2375 18.8156 19.4484C18.8859 19.5797 19.0641 19.6875 19.2188 19.6875C19.4578 19.6875 19.6875 19.4578 19.6875 19.2234C19.6875 19.0641 19.5797 18.8859 19.4484 18.8156C19.2375 18.7078 19.0828 18.7359 18.9094 18.9094Z" fill="white"/>
<path d="M23.3578 20.4609C22.8938 20.6625 23.025 21.3281 23.5266 21.3281C23.9766 21.3281 24.1735 20.7469 23.8032 20.5172C23.6297 20.4047 23.5172 20.3906 23.3578 20.4609Z" fill="white"/>
<path d="M20.8875 20.8875C20.7938 20.9859 20.7656 21.0609 20.7656 21.2109C20.7656 21.4875 20.9344 21.6562 21.2109 21.6562C21.4875 21.6562 21.6563 21.4875 21.6563 21.2109C21.6563 20.9344 21.4875 20.7656 21.2109 20.7656C21.0609 20.7656 20.9859 20.7937 20.8875 20.8875Z" fill="white"/>
<path d="M18.586 21.1969C18.3235 21.4266 18.3985 21.825 18.7313 21.9656C18.8672 22.0219 18.9141 22.0219 19.05 21.9656C19.5282 21.7641 19.4063 21.0937 18.8907 21.0937C18.7688 21.0937 18.6703 21.1266 18.586 21.1969Z" fill="white"/>
<path d="M20.6297 23.1375C20.5688 23.1797 20.4938 23.2875 20.4563 23.3719C20.3203 23.6906 20.5969 24.0375 20.9438 23.986C21.4688 23.9016 21.4594 23.1469 20.9297 23.0813C20.7985 23.0625 20.7094 23.0813 20.6297 23.1375Z" fill="white"/>
</g>
<defs>
<clipPath id="clip0_2455_2069">
<rect width="24" height="24" fill="white"/>
</clipPath>
</defs>
</svg>
